<?xml version="1.0" encoding="utf-8" standalone="no"?>
<!DOCTYPE svg PUBLIC "-//W3C//DTD SVG 1.1//EN"
  "http://www.w3.org/Graphics/SVG/1.1/DTD/svg11.dtd">
<svg xmlns:xlink="http://www.w3.org/1999/xlink" width="1092.540285pt" height="496.069754pt" viewBox="0 0 1092.540285 496.069754" xmlns="http://www.w3.org/2000/svg" version="1.1">
 <metadata>
  <rdf:RDF xmlns:dc="http://purl.org/dc/elements/1.1/" xmlns:cc="http://creativecommons.org/ns#" xmlns:rdf="http://www.w3.org/1999/02/22-rdf-syntax-ns#">
   <cc:Work>
    <dc:type rdf:resource="http://purl.org/dc/dcmitype/StillImage"/>
    <dc:date>2025-09-06T12:39:23.507394</dc:date>
    <dc:format>image/svg+xml</dc:format>
    <dc:creator>
     <cc:Agent>
      <dc:title>Matplotlib v3.8.4, https://matplotlib.org/</dc:title>
     </cc:Agent>
    </dc:creator>
   </cc:Work>
  </rdf:RDF>
 </metadata>
 <defs>
  <style type="text/css">*{stroke-linejoin: round; stroke-linecap: butt}</style>
 </defs>
 <g id="figure_1">
  <g id="patch_1">
   <path d="M 0 496.069754 
L 1092.540285 496.069754 
L 1092.540285 0 
L 0 0 
z
" style="fill: #ffffff"/>
  </g>
  <g id="axes_1">
   <g id="patch_2">
    <path d="M 80.459688 386.241644 
L 968.075688 386.241644 
L 968.075688 35.916562 
L 80.459688 35.916562 
z
" style="fill: #e5e5e5"/>
   </g>
   <g id="matplotlib.axis_1">
    <g id="xtick_1">
     <g id="line2d_1">
      <path d="M 153.741528 386.241644 
L 153.741528 35.916562 
" clip-path="url(#p9e074aa137)" style="fill: none; stroke: #ffffff; stroke-width: 0.8; stroke-linecap: square"/>
     </g>
     <g id="line2d_2">
      <defs>
       <path id="mce1fb51f8f" d="M 0 0 
L 0 3.5 
" style="stroke: #555555; stroke-width: 0.8"/>
      </defs>
      <g>
       <use xlink:href="#mce1fb51f8f" x="153.741528" y="386.241644" style="fill: #555555; stroke: #555555; stroke-width: 0.8"/>
      </g>
     </g>
     <g id="text_1">
      <!-- CH4 -->
      <g transform="translate(119.343519 423.865498) rotate(-30) scale(0.18 -0.18)">
       <defs>
        <path id="DejaVuSans-43" d="M 4122 4306 
L 4122 3641 
Q 3803 3938 3442 4084 
Q 3081 4231 2675 4231 
Q 1875 4231 1450 3742 
Q 1025 3253 1025 2328 
Q 1025 1406 1450 917 
Q 1875 428 2675 428 
Q 3081 428 3442 575 
Q 3803 722 4122 1019 
L 4122 359 
Q 3791 134 3420 21 
Q 3050 -91 2638 -91 
Q 1578 -91 968 557 
Q 359 1206 359 2328 
Q 359 3453 968 4101 
Q 1578 4750 2638 4750 
Q 3056 4750 3426 4639 
Q 3797 4528 4122 4306 
z
" transform="scale(0.015625)"/>
        <path id="DejaVuSans-48" d="M 628 4666 
L 1259 4666 
L 1259 2753 
L 3553 2753 
L 3553 4666 
L 4184 4666 
L 4184 0 
L 3553 0 
L 3553 2222 
L 1259 2222 
L 1259 0 
L 628 0 
L 628 4666 
z
" transform="scale(0.015625)"/>
        <path id="DejaVuSans-34" d="M 2419 4116 
L 825 1625 
L 2419 1625 
L 2419 4116 
z
M 2253 4666 
L 3047 4666 
L 3047 1625 
L 3713 1625 
L 3713 1100 
L 3047 1100 
L 3047 0 
L 2419 0 
L 2419 1100 
L 313 1100 
L 313 1709 
L 2253 4666 
z
" transform="scale(0.015625)"/>
       </defs>
       <use xlink:href="#DejaVuSans-43"/>
       <use xlink:href="#DejaVuSans-48" x="69.824219"/>
       <use xlink:href="#DejaVuSans-34" x="145.019531"/>
      </g>
     </g>
    </g>
    <g id="xtick_2">
     <g id="line2d_3">
      <path d="M 236.080675 386.241644 
L 236.080675 35.916562 
" clip-path="url(#p9e074aa137)" style="fill: none; stroke: #ffffff; stroke-width: 0.8; stroke-linecap: square"/>
     </g>
     <g id="line2d_4">
      <g>
       <use xlink:href="#mce1fb51f8f" x="236.080675" y="386.241644" style="fill: #555555; stroke: #555555; stroke-width: 0.8"/>
      </g>
     </g>
     <g id="text_2">
      <!-- CO2 -->
      <g transform="translate(201.134634 424.181904) rotate(-30) scale(0.18 -0.18)">
       <defs>
        <path id="DejaVuSans-4f" d="M 2522 4238 
Q 1834 4238 1429 3725 
Q 1025 3213 1025 2328 
Q 1025 1447 1429 934 
Q 1834 422 2522 422 
Q 3209 422 3611 934 
Q 4013 1447 4013 2328 
Q 4013 3213 3611 3725 
Q 3209 4238 2522 4238 
z
M 2522 4750 
Q 3503 4750 4090 4092 
Q 4678 3434 4678 2328 
Q 4678 1225 4090 567 
Q 3503 -91 2522 -91 
Q 1538 -91 948 565 
Q 359 1222 359 2328 
Q 359 3434 948 4092 
Q 1538 4750 2522 4750 
z
" transform="scale(0.015625)"/>
        <path id="DejaVuSans-32" d="M 1228 531 
L 3431 531 
L 3431 0 
L 469 0 
L 469 531 
Q 828 903 1448 1529 
Q 2069 2156 2228 2338 
Q 2531 2678 2651 2914 
Q 2772 3150 2772 3378 
Q 2772 3750 2511 3984 
Q 2250 4219 1831 4219 
Q 1534 4219 1204 4116 
Q 875 4013 500 3803 
L 500 4441 
Q 881 4594 1212 4672 
Q 1544 4750 1819 4750 
Q 2544 4750 2975 4387 
Q 3406 4025 3406 3419 
Q 3406 3131 3298 2873 
Q 3191 2616 2906 2266 
Q 2828 2175 2409 1742 
Q 1991 1309 1228 531 
z
" transform="scale(0.015625)"/>
       </defs>
       <use xlink:href="#DejaVuSans-43"/>
       <use xlink:href="#DejaVuSans-4f" x="69.824219"/>
       <use xlink:href="#DejaVuSans-32" x="148.535156"/>
      </g>
     </g>
    </g>
    <g id="xtick_3">
     <g id="line2d_5">
      <path d="M 318.419821 386.241644 
L 318.419821 35.916562 
" clip-path="url(#p9e074aa137)" style="fill: none; stroke: #ffffff; stroke-width: 0.8; stroke-linecap: square"/>
     </g>
     <g id="line2d_6">
      <g>
       <use xlink:href="#mce1fb51f8f" x="318.419821" y="386.241644" style="fill: #555555; stroke: #555555; stroke-width: 0.8"/>
      </g>
     </g>
     <g id="text_3">
      <!-- pH -->
      <g transform="translate(294.928861 417.56831) rotate(-30) scale(0.18 -0.18)">
       <defs>
        <path id="DejaVuSans-70" d="M 1159 525 
L 1159 -1331 
L 581 -1331 
L 581 3500 
L 1159 3500 
L 1159 2969 
Q 1341 3281 1617 3432 
Q 1894 3584 2278 3584 
Q 2916 3584 3314 3078 
Q 3713 2572 3713 1747 
Q 3713 922 3314 415 
Q 2916 -91 2278 -91 
Q 1894 -91 1617 61 
Q 1341 213 1159 525 
z
M 3116 1747 
Q 3116 2381 2855 2742 
Q 2594 3103 2138 3103 
Q 1681 3103 1420 2742 
Q 1159 2381 1159 1747 
Q 1159 1113 1420 752 
Q 1681 391 2138 391 
Q 2594 391 2855 752 
Q 3116 1113 3116 1747 
z
" transform="scale(0.015625)"/>
       </defs>
       <use xlink:href="#DejaVuSans-70"/>
       <use xlink:href="#DejaVuSans-48" x="63.476562"/>
      </g>
     </g>
    </g>
    <g id="xtick_4">
     <g id="line2d_7">
      <path d="M 400.758968 386.241644 
L 400.758968 35.916562 
" clip-path="url(#p9e074aa137)" style="fill: none; stroke: #ffffff; stroke-width: 0.8; stroke-linecap: square"/>
     </g>
     <g id="line2d_8">
      <g>
       <use xlink:href="#mce1fb51f8f" x="400.758968" y="386.241644" style="fill: #555555; stroke: #555555; stroke-width: 0.8"/>
      </g>
     </g>
     <g id="text_4">
      <!-- EV -->
      <g transform="translate(378.373813 416.929873) rotate(-30) scale(0.18 -0.18)">
       <defs>
        <path id="DejaVuSans-45" d="M 628 4666 
L 3578 4666 
L 3578 4134 
L 1259 4134 
L 1259 2753 
L 3481 2753 
L 3481 2222 
L 1259 2222 
L 1259 531 
L 3634 531 
L 3634 0 
L 628 0 
L 628 4666 
z
" transform="scale(0.015625)"/>
        <path id="DejaVuSans-56" d="M 1831 0 
L 50 4666 
L 709 4666 
L 2188 738 
L 3669 4666 
L 4325 4666 
L 2547 0 
L 1831 0 
z
" transform="scale(0.015625)"/>
       </defs>
       <use xlink:href="#DejaVuSans-45"/>
       <use xlink:href="#DejaVuSans-56" x="63.183594"/>
      </g>
     </g>
    </g>
    <g id="xtick_5">
     <g id="line2d_9">
      <path d="M 483.098114 386.241644 
L 483.098114 35.916562 
" clip-path="url(#p9e074aa137)" style="fill: none; stroke: #ffffff; stroke-width: 0.8; stroke-linecap: square"/>
     </g>
     <g id="line2d_10">
      <g>
       <use xlink:href="#mce1fb51f8f" x="483.098114" y="386.241644" style="fill: #555555; stroke: #555555; stroke-width: 0.8"/>
      </g>
     </g>
     <g id="text_5">
      <!-- RFV -->
      <g transform="translate(450.765576 422.672998) rotate(-30) scale(0.18 -0.18)">
       <defs>
        <path id="DejaVuSans-52" d="M 2841 2188 
Q 3044 2119 3236 1894 
Q 3428 1669 3622 1275 
L 4263 0 
L 3584 0 
L 2988 1197 
Q 2756 1666 2539 1819 
Q 2322 1972 1947 1972 
L 1259 1972 
L 1259 0 
L 628 0 
L 628 4666 
L 2053 4666 
Q 2853 4666 3247 4331 
Q 3641 3997 3641 3322 
Q 3641 2881 3436 2590 
Q 3231 2300 2841 2188 
z
M 1259 4147 
L 1259 2491 
L 2053 2491 
Q 2509 2491 2742 2702 
Q 2975 2913 2975 3322 
Q 2975 3731 2742 3939 
Q 2509 4147 2053 4147 
L 1259 4147 
z
" transform="scale(0.015625)"/>
        <path id="DejaVuSans-46" d="M 628 4666 
L 3309 4666 
L 3309 4134 
L 1259 4134 
L 1259 2759 
L 3109 2759 
L 3109 2228 
L 1259 2228 
L 1259 0 
L 628 0 
L 628 4666 
z
" transform="scale(0.015625)"/>
       </defs>
       <use xlink:href="#DejaVuSans-52"/>
       <use xlink:href="#DejaVuSans-46" x="69.482422"/>
       <use xlink:href="#DejaVuSans-56" x="127.001953"/>
      </g>
     </g>
    </g>
    <g id="xtick_6">
     <g id="line2d_11">
      <path d="M 565.437261 386.241644 
L 565.437261 35.916562 
" clip-path="url(#p9e074aa137)" style="fill: none; stroke: #ffffff; stroke-width: 0.8; stroke-linecap: square"/>
     </g>
     <g id="line2d_12">
      <g>
       <use xlink:href="#mce1fb51f8f" x="565.437261" y="386.241644" style="fill: #555555; stroke: #555555; stroke-width: 0.8"/>
      </g>
     </g>
     <g id="text_6">
      <!-- Temperatura -->
      <g transform="translate(464.517946 462.271592) rotate(-30) scale(0.18 -0.18)">
       <defs>
        <path id="DejaVuSans-54" d="M -19 4666 
L 3928 4666 
L 3928 4134 
L 2272 4134 
L 2272 0 
L 1638 0 
L 1638 4134 
L -19 4134 
L -19 4666 
z
" transform="scale(0.015625)"/>
        <path id="DejaVuSans-65" d="M 3597 1894 
L 3597 1613 
L 953 1613 
Q 991 1019 1311 708 
Q 1631 397 2203 397 
Q 2534 397 2845 478 
Q 3156 559 3463 722 
L 3463 178 
Q 3153 47 2828 -22 
Q 2503 -91 2169 -91 
Q 1331 -91 842 396 
Q 353 884 353 1716 
Q 353 2575 817 3079 
Q 1281 3584 2069 3584 
Q 2775 3584 3186 3129 
Q 3597 2675 3597 1894 
z
M 3022 2063 
Q 3016 2534 2758 2815 
Q 2500 3097 2075 3097 
Q 1594 3097 1305 2825 
Q 1016 2553 972 2059 
L 3022 2063 
z
" transform="scale(0.015625)"/>
        <path id="DejaVuSans-6d" d="M 3328 2828 
Q 3544 3216 3844 3400 
Q 4144 3584 4550 3584 
Q 5097 3584 5394 3201 
Q 5691 2819 5691 2113 
L 5691 0 
L 5113 0 
L 5113 2094 
Q 5113 2597 4934 2840 
Q 4756 3084 4391 3084 
Q 3944 3084 3684 2787 
Q 3425 2491 3425 1978 
L 3425 0 
L 2847 0 
L 2847 2094 
Q 2847 2600 2669 2842 
Q 2491 3084 2119 3084 
Q 1678 3084 1418 2786 
Q 1159 2488 1159 1978 
L 1159 0 
L 581 0 
L 581 3500 
L 1159 3500 
L 1159 2956 
Q 1356 3278 1631 3431 
Q 1906 3584 2284 3584 
Q 2666 3584 2933 3390 
Q 3200 3197 3328 2828 
z
" transform="scale(0.015625)"/>
        <path id="DejaVuSans-72" d="M 2631 2963 
Q 2534 3019 2420 3045 
Q 2306 3072 2169 3072 
Q 1681 3072 1420 2755 
Q 1159 2438 1159 1844 
L 1159 0 
L 581 0 
L 581 3500 
L 1159 3500 
L 1159 2956 
Q 1341 3275 1631 3429 
Q 1922 3584 2338 3584 
Q 2397 3584 2469 3576 
Q 2541 3569 2628 3553 
L 2631 2963 
z
" transform="scale(0.015625)"/>
        <path id="DejaVuSans-61" d="M 2194 1759 
Q 1497 1759 1228 1600 
Q 959 1441 959 1056 
Q 959 750 1161 570 
Q 1363 391 1709 391 
Q 2188 391 2477 730 
Q 2766 1069 2766 1631 
L 2766 1759 
L 2194 1759 
z
M 3341 1997 
L 3341 0 
L 2766 0 
L 2766 531 
Q 2569 213 2275 61 
Q 1981 -91 1556 -91 
Q 1019 -91 701 211 
Q 384 513 384 1019 
Q 384 1609 779 1909 
Q 1175 2209 1959 2209 
L 2766 2209 
L 2766 2266 
Q 2766 2663 2505 2880 
Q 2244 3097 1772 3097 
Q 1472 3097 1187 3025 
Q 903 2953 641 2809 
L 641 3341 
Q 956 3463 1253 3523 
Q 1550 3584 1831 3584 
Q 2591 3584 2966 3190 
Q 3341 2797 3341 1997 
z
" transform="scale(0.015625)"/>
        <path id="DejaVuSans-74" d="M 1172 4494 
L 1172 3500 
L 2356 3500 
L 2356 3053 
L 1172 3053 
L 1172 1153 
Q 1172 725 1289 603 
Q 1406 481 1766 481 
L 2356 481 
L 2356 0 
L 1766 0 
Q 1100 0 847 248 
Q 594 497 594 1153 
L 594 3053 
L 172 3053 
L 172 3500 
L 594 3500 
L 594 4494 
L 1172 4494 
z
" transform="scale(0.015625)"/>
        <path id="DejaVuSans-75" d="M 544 1381 
L 544 3500 
L 1119 3500 
L 1119 1403 
Q 1119 906 1312 657 
Q 1506 409 1894 409 
Q 2359 409 2629 706 
Q 2900 1003 2900 1516 
L 2900 3500 
L 3475 3500 
L 3475 0 
L 2900 0 
L 2900 538 
Q 2691 219 2414 64 
Q 2138 -91 1772 -91 
Q 1169 -91 856 284 
Q 544 659 544 1381 
z
M 1991 3584 
L 1991 3584 
z
" transform="scale(0.015625)"/>
       </defs>
       <use xlink:href="#DejaVuSans-54"/>
       <use xlink:href="#DejaVuSans-65" x="44.083984"/>
       <use xlink:href="#DejaVuSans-6d" x="105.607422"/>
       <use xlink:href="#DejaVuSans-70" x="203.019531"/>
       <use xlink:href="#DejaVuSans-65" x="266.496094"/>
       <use xlink:href="#DejaVuSans-72" x="328.019531"/>
       <use xlink:href="#DejaVuSans-61" x="369.132812"/>
       <use xlink:href="#DejaVuSans-74" x="430.412109"/>
       <use xlink:href="#DejaVuSans-75" x="469.621094"/>
       <use xlink:href="#DejaVuSans-72" x="533"/>
       <use xlink:href="#DejaVuSans-61" x="574.113281"/>
      </g>
     </g>
    </g>
    <g id="xtick_7">
     <g id="line2d_13">
      <path d="M 647.776407 386.241644 
L 647.776407 35.916562 
" clip-path="url(#p9e074aa137)" style="fill: none; stroke: #ffffff; stroke-width: 0.8; stroke-linecap: square"/>
     </g>
     <g id="line2d_14">
      <g>
       <use xlink:href="#mce1fb51f8f" x="647.776407" y="386.241644" style="fill: #555555; stroke: #555555; stroke-width: 0.8"/>
      </g>
     </g>
     <g id="text_7">
      <!-- TRH -->
      <g transform="translate(613.829002 423.605342) rotate(-30) scale(0.18 -0.18)">
       <use xlink:href="#DejaVuSans-54"/>
       <use xlink:href="#DejaVuSans-52" x="61.083984"/>
       <use xlink:href="#DejaVuSans-48" x="130.566406"/>
      </g>
     </g>
    </g>
    <g id="xtick_8">
     <g id="line2d_15">
      <path d="M 730.115554 386.241644 
L 730.115554 35.916562 
" clip-path="url(#p9e074aa137)" style="fill: none; stroke: #ffffff; stroke-width: 0.8; stroke-linecap: square"/>
     </g>
     <g id="line2d_16">
      <g>
       <use xlink:href="#mce1fb51f8f" x="730.115554" y="386.241644" style="fill: #555555; stroke: #555555; stroke-width: 0.8"/>
      </g>
     </g>
     <g id="text_8">
      <!-- RFV_SV -->
      <g transform="translate(669.178761 438.76792) rotate(-30) scale(0.18 -0.18)">
       <defs>
        <path id="DejaVuSans-5f" d="M 3263 -1063 
L 3263 -1509 
L -63 -1509 
L -63 -1063 
L 3263 -1063 
z
" transform="scale(0.015625)"/>
        <path id="DejaVuSans-53" d="M 3425 4513 
L 3425 3897 
Q 3066 4069 2747 4153 
Q 2428 4238 2131 4238 
Q 1616 4238 1336 4038 
Q 1056 3838 1056 3469 
Q 1056 3159 1242 3001 
Q 1428 2844 1947 2747 
L 2328 2669 
Q 3034 2534 3370 2195 
Q 3706 1856 3706 1288 
Q 3706 609 3251 259 
Q 2797 -91 1919 -91 
Q 1588 -91 1214 -16 
Q 841 59 441 206 
L 441 856 
Q 825 641 1194 531 
Q 1563 422 1919 422 
Q 2459 422 2753 634 
Q 3047 847 3047 1241 
Q 3047 1584 2836 1778 
Q 2625 1972 2144 2069 
L 1759 2144 
Q 1053 2284 737 2584 
Q 422 2884 422 3419 
Q 422 4038 858 4394 
Q 1294 4750 2059 4750 
Q 2388 4750 2728 4690 
Q 3069 4631 3425 4513 
z
" transform="scale(0.015625)"/>
       </defs>
       <use xlink:href="#DejaVuSans-52"/>
       <use xlink:href="#DejaVuSans-46" x="69.482422"/>
       <use xlink:href="#DejaVuSans-56" x="127.001953"/>
       <use xlink:href="#DejaVuSans-5f" x="195.410156"/>
       <use xlink:href="#DejaVuSans-53" x="245.410156"/>
       <use xlink:href="#DejaVuSans-56" x="308.886719"/>
      </g>
     </g>
    </g>
    <g id="xtick_9">
     <g id="line2d_17">
      <path d="M 812.4547 386.241644 
L 812.4547 35.916562 
" clip-path="url(#p9e074aa137)" style="fill: none; stroke: #ffffff; stroke-width: 0.8; stroke-linecap: square"/>
     </g>
     <g id="line2d_18">
      <g>
       <use xlink:href="#mce1fb51f8f" x="812.4547" y="386.241644" style="fill: #555555; stroke: #555555; stroke-width: 0.8"/>
      </g>
     </g>
     <g id="text_9">
      <!-- EV_SV -->
      <g transform="translate(761.465291 433.024795) rotate(-30) scale(0.18 -0.18)">
       <use xlink:href="#DejaVuSans-45"/>
       <use xlink:href="#DejaVuSans-56" x="63.183594"/>
       <use xlink:href="#DejaVuSans-5f" x="131.591797"/>
       <use xlink:href="#DejaVuSans-53" x="181.591797"/>
       <use xlink:href="#DejaVuSans-56" x="245.068359"/>
      </g>
     </g>
    </g>
    <g id="xtick_10">
     <g id="line2d_19">
      <path d="M 894.793847 386.241644 
L 894.793847 35.916562 
" clip-path="url(#p9e074aa137)" style="fill: none; stroke: #ffffff; stroke-width: 0.8; stroke-linecap: square"/>
     </g>
     <g id="line2d_20">
      <g>
       <use xlink:href="#mce1fb51f8f" x="894.793847" y="386.241644" style="fill: #555555; stroke: #555555; stroke-width: 0.8"/>
      </g>
     </g>
     <g id="text_10">
      <!-- TCO -->
      <g transform="translate(861.160647 423.423935) rotate(-30) scale(0.18 -0.18)">
       <use xlink:href="#DejaVuSans-54"/>
       <use xlink:href="#DejaVuSans-43" x="55.208984"/>
       <use xlink:href="#DejaVuSans-4f" x="125.033203"/>
      </g>
     </g>
    </g>
    <g id="text_11">
     <!-- Variables -->
     <g transform="translate(478.567688 484.710379) scale(0.2 -0.2)">
      <defs>
       <path id="DejaVuSans-69" d="M 603 3500 
L 1178 3500 
L 1178 0 
L 603 0 
L 603 3500 
z
M 603 4863 
L 1178 4863 
L 1178 4134 
L 603 4134 
L 603 4863 
z
" transform="scale(0.015625)"/>
       <path id="DejaVuSans-62" d="M 3116 1747 
Q 3116 2381 2855 2742 
Q 2594 3103 2138 3103 
Q 1681 3103 1420 2742 
Q 1159 2381 1159 1747 
Q 1159 1113 1420 752 
Q 1681 391 2138 391 
Q 2594 391 2855 752 
Q 3116 1113 3116 1747 
z
M 1159 2969 
Q 1341 3281 1617 3432 
Q 1894 3584 2278 3584 
Q 2916 3584 3314 3078 
Q 3713 2572 3713 1747 
Q 3713 922 3314 415 
Q 2916 -91 2278 -91 
Q 1894 -91 1617 61 
Q 1341 213 1159 525 
L 1159 0 
L 581 0 
L 581 4863 
L 1159 4863 
L 1159 2969 
z
" transform="scale(0.015625)"/>
       <path id="DejaVuSans-6c" d="M 603 4863 
L 1178 4863 
L 1178 0 
L 603 0 
L 603 4863 
z
" transform="scale(0.015625)"/>
       <path id="DejaVuSans-73" d="M 2834 3397 
L 2834 2853 
Q 2591 2978 2328 3040 
Q 2066 3103 1784 3103 
Q 1356 3103 1142 2972 
Q 928 2841 928 2578 
Q 928 2378 1081 2264 
Q 1234 2150 1697 2047 
L 1894 2003 
Q 2506 1872 2764 1633 
Q 3022 1394 3022 966 
Q 3022 478 2636 193 
Q 2250 -91 1575 -91 
Q 1294 -91 989 -36 
Q 684 19 347 128 
L 347 722 
Q 666 556 975 473 
Q 1284 391 1588 391 
Q 1994 391 2212 530 
Q 2431 669 2431 922 
Q 2431 1156 2273 1281 
Q 2116 1406 1581 1522 
L 1381 1569 
Q 847 1681 609 1914 
Q 372 2147 372 2553 
Q 372 3047 722 3315 
Q 1072 3584 1716 3584 
Q 2034 3584 2315 3537 
Q 2597 3491 2834 3397 
z
" transform="scale(0.015625)"/>
      </defs>
      <use xlink:href="#DejaVuSans-56"/>
      <use xlink:href="#DejaVuSans-61" x="60.658203"/>
      <use xlink:href="#DejaVuSans-72" x="121.9375"/>
      <use xlink:href="#DejaVuSans-69" x="163.050781"/>
      <use xlink:href="#DejaVuSans-61" x="190.833984"/>
      <use xlink:href="#DejaVuSans-62" x="252.113281"/>
      <use xlink:href="#DejaVuSans-6c" x="315.589844"/>
      <use xlink:href="#DejaVuSans-65" x="343.373047"/>
      <use xlink:href="#DejaVuSans-73" x="404.896484"/>
     </g>
    </g>
   </g>
   <g id="matplotlib.axis_2">
    <g id="ytick_1">
     <g id="line2d_21">
      <path d="M 80.459688 370.317776 
L 968.075688 370.317776 
" clip-path="url(#p9e074aa137)" style="fill: none; stroke-dasharray: 2.96,1.28; stroke-dashoffset: 0; stroke: #ffffff; stroke-opacity: 0.3; stroke-width: 0.8"/>
     </g>
     <g id="line2d_22">
      <defs>
       <path id="m3cd85290f7" d="M 0 0 
L -3.5 0 
" style="stroke: #000000; stroke-width: 0.8"/>
      </defs>
      <g>
       <use xlink:href="#m3cd85290f7" x="80.459688" y="370.317776" style="stroke: #000000; stroke-width: 0.8"/>
      </g>
     </g>
     <g id="text_12">
      <!-- −1.00 -->
      <g transform="translate(30.55625 375.636682) scale(0.14 -0.14)">
       <defs>
        <path id="DejaVuSans-2212" d="M 678 2272 
L 4684 2272 
L 4684 1741 
L 678 1741 
L 678 2272 
z
" transform="scale(0.015625)"/>
        <path id="DejaVuSans-31" d="M 794 531 
L 1825 531 
L 1825 4091 
L 703 3866 
L 703 4441 
L 1819 4666 
L 2450 4666 
L 2450 531 
L 3481 531 
L 3481 0 
L 794 0 
L 794 531 
z
" transform="scale(0.015625)"/>
        <path id="DejaVuSans-2e" d="M 684 794 
L 1344 794 
L 1344 0 
L 684 0 
L 684 794 
z
" transform="scale(0.015625)"/>
        <path id="DejaVuSans-30" d="M 2034 4250 
Q 1547 4250 1301 3770 
Q 1056 3291 1056 2328 
Q 1056 1369 1301 889 
Q 1547 409 2034 409 
Q 2525 409 2770 889 
Q 3016 1369 3016 2328 
Q 3016 3291 2770 3770 
Q 2525 4250 2034 4250 
z
M 2034 4750 
Q 2819 4750 3233 4129 
Q 3647 3509 3647 2328 
Q 3647 1150 3233 529 
Q 2819 -91 2034 -91 
Q 1250 -91 836 529 
Q 422 1150 422 2328 
Q 422 3509 836 4129 
Q 1250 4750 2034 4750 
z
" transform="scale(0.015625)"/>
       </defs>
       <use xlink:href="#DejaVuSans-2212"/>
       <use xlink:href="#DejaVuSans-31" x="83.789062"/>
       <use xlink:href="#DejaVuSans-2e" x="147.412109"/>
       <use xlink:href="#DejaVuSans-30" x="179.199219"/>
       <use xlink:href="#DejaVuSans-30" x="242.822266"/>
      </g>
     </g>
    </g>
    <g id="ytick_2">
     <g id="line2d_23">
      <path d="M 80.459688 330.508108 
L 968.075688 330.508108 
" clip-path="url(#p9e074aa137)" style="fill: none; stroke-dasharray: 2.96,1.28; stroke-dashoffset: 0; stroke: #ffffff; stroke-opacity: 0.3; stroke-width: 0.8"/>
     </g>
     <g id="line2d_24">
      <g>
       <use xlink:href="#m3cd85290f7" x="80.459688" y="330.508108" style="stroke: #000000; stroke-width: 0.8"/>
      </g>
     </g>
     <g id="text_13">
      <!-- −0.75 -->
      <g transform="translate(30.55625 335.827014) scale(0.14 -0.14)">
       <defs>
        <path id="DejaVuSans-37" d="M 525 4666 
L 3525 4666 
L 3525 4397 
L 1831 0 
L 1172 0 
L 2766 4134 
L 525 4134 
L 525 4666 
z
" transform="scale(0.015625)"/>
        <path id="DejaVuSans-35" d="M 691 4666 
L 3169 4666 
L 3169 4134 
L 1269 4134 
L 1269 2991 
Q 1406 3038 1543 3061 
Q 1681 3084 1819 3084 
Q 2600 3084 3056 2656 
Q 3513 2228 3513 1497 
Q 3513 744 3044 326 
Q 2575 -91 1722 -91 
Q 1428 -91 1123 -41 
Q 819 9 494 109 
L 494 744 
Q 775 591 1075 516 
Q 1375 441 1709 441 
Q 2250 441 2565 725 
Q 2881 1009 2881 1497 
Q 2881 1984 2565 2268 
Q 2250 2553 1709 2553 
Q 1456 2553 1204 2497 
Q 953 2441 691 2322 
L 691 4666 
z
" transform="scale(0.015625)"/>
       </defs>
       <use xlink:href="#DejaVuSans-2212"/>
       <use xlink:href="#DejaVuSans-30" x="83.789062"/>
       <use xlink:href="#DejaVuSans-2e" x="147.412109"/>
       <use xlink:href="#DejaVuSans-37" x="179.199219"/>
       <use xlink:href="#DejaVuSans-35" x="242.822266"/>
      </g>
     </g>
    </g>
    <g id="ytick_3">
     <g id="line2d_25">
      <path d="M 80.459688 290.69844 
L 968.075688 290.69844 
" clip-path="url(#p9e074aa137)" style="fill: none; stroke-dasharray: 2.96,1.28; stroke-dashoffset: 0; stroke: #ffffff; stroke-opacity: 0.3; stroke-width: 0.8"/>
     </g>
     <g id="line2d_26">
      <g>
       <use xlink:href="#m3cd85290f7" x="80.459688" y="290.69844" style="stroke: #000000; stroke-width: 0.8"/>
      </g>
     </g>
     <g id="text_14">
      <!-- −0.50 -->
      <g transform="translate(30.55625 296.017346) scale(0.14 -0.14)">
       <use xlink:href="#DejaVuSans-2212"/>
       <use xlink:href="#DejaVuSans-30" x="83.789062"/>
       <use xlink:href="#DejaVuSans-2e" x="147.412109"/>
       <use xlink:href="#DejaVuSans-35" x="179.199219"/>
       <use xlink:href="#DejaVuSans-30" x="242.822266"/>
      </g>
     </g>
    </g>
    <g id="ytick_4">
     <g id="line2d_27">
      <path d="M 80.459688 250.888771 
L 968.075688 250.888771 
" clip-path="url(#p9e074aa137)" style="fill: none; stroke-dasharray: 2.96,1.28; stroke-dashoffset: 0; stroke: #ffffff; stroke-opacity: 0.3; stroke-width: 0.8"/>
     </g>
     <g id="line2d_28">
      <g>
       <use xlink:href="#m3cd85290f7" x="80.459688" y="250.888771" style="stroke: #000000; stroke-width: 0.8"/>
      </g>
     </g>
     <g id="text_15">
      <!-- −0.25 -->
      <g transform="translate(30.55625 256.207678) scale(0.14 -0.14)">
       <use xlink:href="#DejaVuSans-2212"/>
       <use xlink:href="#DejaVuSans-30" x="83.789062"/>
       <use xlink:href="#DejaVuSans-2e" x="147.412109"/>
       <use xlink:href="#DejaVuSans-32" x="179.199219"/>
       <use xlink:href="#DejaVuSans-35" x="242.822266"/>
      </g>
     </g>
    </g>
    <g id="ytick_5">
     <g id="line2d_29">
      <path d="M 80.459688 211.079103 
L 968.075688 211.079103 
" clip-path="url(#p9e074aa137)" style="fill: none; stroke-dasharray: 2.96,1.28; stroke-dashoffset: 0; stroke: #ffffff; stroke-opacity: 0.3; stroke-width: 0.8"/>
     </g>
     <g id="line2d_30">
      <g>
       <use xlink:href="#m3cd85290f7" x="80.459688" y="211.079103" style="stroke: #000000; stroke-width: 0.8"/>
      </g>
     </g>
     <g id="text_16">
      <!-- 0.00 -->
      <g transform="translate(42.287813 216.398009) scale(0.14 -0.14)">
       <use xlink:href="#DejaVuSans-30"/>
       <use xlink:href="#DejaVuSans-2e" x="63.623047"/>
       <use xlink:href="#DejaVuSans-30" x="95.410156"/>
       <use xlink:href="#DejaVuSans-30" x="159.033203"/>
      </g>
     </g>
    </g>
    <g id="ytick_6">
     <g id="line2d_31">
      <path d="M 80.459688 171.269435 
L 968.075688 171.269435 
" clip-path="url(#p9e074aa137)" style="fill: none; stroke-dasharray: 2.96,1.28; stroke-dashoffset: 0; stroke: #ffffff; stroke-opacity: 0.3; stroke-width: 0.8"/>
     </g>
     <g id="line2d_32">
      <g>
       <use xlink:href="#m3cd85290f7" x="80.459688" y="171.269435" style="stroke: #000000; stroke-width: 0.8"/>
      </g>
     </g>
     <g id="text_17">
      <!-- 0.25 -->
      <g transform="translate(42.287813 176.588341) scale(0.14 -0.14)">
       <use xlink:href="#DejaVuSans-30"/>
       <use xlink:href="#DejaVuSans-2e" x="63.623047"/>
       <use xlink:href="#DejaVuSans-32" x="95.410156"/>
       <use xlink:href="#DejaVuSans-35" x="159.033203"/>
      </g>
     </g>
    </g>
    <g id="ytick_7">
     <g id="line2d_33">
      <path d="M 80.459688 131.459766 
L 968.075688 131.459766 
" clip-path="url(#p9e074aa137)" style="fill: none; stroke-dasharray: 2.96,1.28; stroke-dashoffset: 0; stroke: #ffffff; stroke-opacity: 0.3; stroke-width: 0.8"/>
     </g>
     <g id="line2d_34">
      <g>
       <use xlink:href="#m3cd85290f7" x="80.459688" y="131.459766" style="stroke: #000000; stroke-width: 0.8"/>
      </g>
     </g>
     <g id="text_18">
      <!-- 0.50 -->
      <g transform="translate(42.287813 136.778673) scale(0.14 -0.14)">
       <use xlink:href="#DejaVuSans-30"/>
       <use xlink:href="#DejaVuSans-2e" x="63.623047"/>
       <use xlink:href="#DejaVuSans-35" x="95.410156"/>
       <use xlink:href="#DejaVuSans-30" x="159.033203"/>
      </g>
     </g>
    </g>
    <g id="ytick_8">
     <g id="line2d_35">
      <path d="M 80.459688 91.650098 
L 968.075688 91.650098 
" clip-path="url(#p9e074aa137)" style="fill: none; stroke-dasharray: 2.96,1.28; stroke-dashoffset: 0; stroke: #ffffff; stroke-opacity: 0.3; stroke-width: 0.8"/>
     </g>
     <g id="line2d_36">
      <g>
       <use xlink:href="#m3cd85290f7" x="80.459688" y="91.650098" style="stroke: #000000; stroke-width: 0.8"/>
      </g>
     </g>
     <g id="text_19">
      <!-- 0.75 -->
      <g transform="translate(42.287813 96.969004) scale(0.14 -0.14)">
       <use xlink:href="#DejaVuSans-30"/>
       <use xlink:href="#DejaVuSans-2e" x="63.623047"/>
       <use xlink:href="#DejaVuSans-37" x="95.410156"/>
       <use xlink:href="#DejaVuSans-35" x="159.033203"/>
      </g>
     </g>
    </g>
    <g id="ytick_9">
     <g id="line2d_37">
      <path d="M 80.459688 51.84043 
L 968.075688 51.84043 
" clip-path="url(#p9e074aa137)" style="fill: none; stroke-dasharray: 2.96,1.28; stroke-dashoffset: 0; stroke: #ffffff; stroke-opacity: 0.3; stroke-width: 0.8"/>
     </g>
     <g id="line2d_38">
      <g>
       <use xlink:href="#m3cd85290f7" x="80.459688" y="51.84043" style="stroke: #000000; stroke-width: 0.8"/>
      </g>
     </g>
     <g id="text_20">
      <!-- 1.00 -->
      <g transform="translate(42.287813 57.159336) scale(0.14 -0.14)">
       <use xlink:href="#DejaVuSans-31"/>
       <use xlink:href="#DejaVuSans-2e" x="63.623047"/>
       <use xlink:href="#DejaVuSans-30" x="95.410156"/>
       <use xlink:href="#DejaVuSans-30" x="159.033203"/>
      </g>
     </g>
    </g>
    <g id="text_21">
     <!-- Cargas -->
     <g transform="translate(22.396875 245.811916) rotate(-90) scale(0.2 -0.2)">
      <defs>
       <path id="DejaVuSans-67" d="M 2906 1791 
Q 2906 2416 2648 2759 
Q 2391 3103 1925 3103 
Q 1463 3103 1205 2759 
Q 947 2416 947 1791 
Q 947 1169 1205 825 
Q 1463 481 1925 481 
Q 2391 481 2648 825 
Q 2906 1169 2906 1791 
z
M 3481 434 
Q 3481 -459 3084 -895 
Q 2688 -1331 1869 -1331 
Q 1566 -1331 1297 -1286 
Q 1028 -1241 775 -1147 
L 775 -588 
Q 1028 -725 1275 -790 
Q 1522 -856 1778 -856 
Q 2344 -856 2625 -561 
Q 2906 -266 2906 331 
L 2906 616 
Q 2728 306 2450 153 
Q 2172 0 1784 0 
Q 1141 0 747 490 
Q 353 981 353 1791 
Q 353 2603 747 3093 
Q 1141 3584 1784 3584 
Q 2172 3584 2450 3431 
Q 2728 3278 2906 2969 
L 2906 3500 
L 3481 3500 
L 3481 434 
z
" transform="scale(0.015625)"/>
      </defs>
      <use xlink:href="#DejaVuSans-43"/>
      <use xlink:href="#DejaVuSans-61" x="69.824219"/>
      <use xlink:href="#DejaVuSans-72" x="131.103516"/>
      <use xlink:href="#DejaVuSans-67" x="170.466797"/>
      <use xlink:href="#DejaVuSans-61" x="233.943359"/>
      <use xlink:href="#DejaVuSans-73" x="295.222656"/>
     </g>
    </g>
   </g>
   <g id="patch_3">
    <path d="M 120.805869 211.079103 
L 127.393001 211.079103 
L 127.393001 160.122728 
L 120.805869 160.122728 
z
" clip-path="url(#p9e074aa137)" style="fill: #1f77b4"/>
   </g>
   <g id="patch_4">
    <path d="M 203.145016 211.079103 
L 209.732148 211.079103 
L 209.732148 298.660373 
L 203.145016 298.660373 
z
" clip-path="url(#p9e074aa137)" style="fill: #1f77b4"/>
   </g>
   <g id="patch_5">
    <path d="M 285.484162 211.079103 
L 292.071294 211.079103 
L 292.071294 260.443092 
L 285.484162 260.443092 
z
" clip-path="url(#p9e074aa137)" style="fill: #1f77b4"/>
   </g>
   <g id="patch_6">
    <path d="M 367.823309 211.079103 
L 374.410441 211.079103 
L 374.410441 363.948229 
L 367.823309 363.948229 
z
" clip-path="url(#p9e074aa137)" style="fill: #1f77b4"/>
   </g>
   <g id="patch_7">
    <path d="M 450.162456 211.079103 
L 456.749587 211.079103 
L 456.749587 47.06327 
L 450.162456 47.06327 
z
" clip-path="url(#p9e074aa137)" style="fill: #1f77b4"/>
   </g>
   <g id="patch_8">
    <path d="M 532.501602 211.079103 
L 539.088734 211.079103 
L 539.088734 134.64454 
L 532.501602 134.64454 
z
" clip-path="url(#p9e074aa137)" style="fill: #1f77b4"/>
   </g>
   <g id="patch_9">
    <path d="M 614.840749 211.079103 
L 621.42788 211.079103 
L 621.42788 312.991854 
L 614.840749 312.991854 
z
" clip-path="url(#p9e074aa137)" style="fill: #1f77b4"/>
   </g>
   <g id="patch_10">
    <path d="M 697.179895 211.079103 
L 703.767027 211.079103 
L 703.767027 47.06327 
L 697.179895 47.06327 
z
" clip-path="url(#p9e074aa137)" style="fill: #1f77b4"/>
   </g>
   <g id="patch_11">
    <path d="M 779.519042 211.079103 
L 786.106174 211.079103 
L 786.106174 363.948229 
L 779.519042 363.948229 
z
" clip-path="url(#p9e074aa137)" style="fill: #1f77b4"/>
   </g>
   <g id="patch_12">
    <path d="M 861.858188 211.079103 
L 868.44532 211.079103 
L 868.44532 141.014087 
L 861.858188 141.014087 
z
" clip-path="url(#p9e074aa137)" style="fill: #1f77b4"/>
   </g>
   <g id="patch_13">
    <path d="M 127.393001 211.079103 
L 133.980133 211.079103 
L 133.980133 257.258318 
L 127.393001 257.258318 
z
" clip-path="url(#p9e074aa137)" style="fill: #aec7e8"/>
   </g>
   <g id="patch_14">
    <path d="M 209.732148 211.079103 
L 216.319279 211.079103 
L 216.319279 222.22581 
L 209.732148 222.22581 
z
" clip-path="url(#p9e074aa137)" style="fill: #aec7e8"/>
   </g>
   <g id="patch_15">
    <path d="M 292.071294 211.079103 
L 298.658426 211.079103 
L 298.658426 99.612032 
L 292.071294 99.612032 
z
" clip-path="url(#p9e074aa137)" style="fill: #aec7e8"/>
   </g>
   <g id="patch_16">
    <path d="M 374.410441 211.079103 
L 380.997572 211.079103 
L 380.997572 161.715114 
L 374.410441 161.715114 
z
" clip-path="url(#p9e074aa137)" style="fill: #aec7e8"/>
   </g>
   <g id="patch_17">
    <path d="M 456.749587 211.079103 
L 463.336719 211.079103 
L 463.336719 223.818197 
L 456.749587 223.818197 
z
" clip-path="url(#p9e074aa137)" style="fill: #aec7e8"/>
   </g>
   <g id="patch_18">
    <path d="M 539.088734 211.079103 
L 545.675866 211.079103 
L 545.675866 133.052153 
L 539.088734 133.052153 
z
" clip-path="url(#p9e074aa137)" style="fill: #aec7e8"/>
   </g>
   <g id="patch_19">
    <path d="M 621.42788 211.079103 
L 628.015012 211.079103 
L 628.015012 320.953788 
L 621.42788 320.953788 
z
" clip-path="url(#p9e074aa137)" style="fill: #aec7e8"/>
   </g>
   <g id="patch_20">
    <path d="M 703.767027 211.079103 
L 710.354159 211.079103 
L 710.354159 223.818197 
L 703.767027 223.818197 
z
" clip-path="url(#p9e074aa137)" style="fill: #aec7e8"/>
   </g>
   <g id="patch_21">
    <path d="M 786.106174 211.079103 
L 792.693305 211.079103 
L 792.693305 161.715114 
L 786.106174 161.715114 
z
" clip-path="url(#p9e074aa137)" style="fill: #aec7e8"/>
   </g>
   <g id="patch_22">
    <path d="M 868.44532 211.079103 
L 875.032452 211.079103 
L 875.032452 83.688164 
L 868.44532 83.688164 
z
" clip-path="url(#p9e074aa137)" style="fill: #aec7e8"/>
   </g>
   <g id="patch_23">
    <path d="M 133.980133 211.079103 
L 140.567264 211.079103 
L 140.567264 74.133844 
L 133.980133 74.133844 
z
" clip-path="url(#p9e074aa137)" style="fill: #ff7f0e"/>
   </g>
   <g id="patch_24">
    <path d="M 216.319279 211.079103 
L 222.906411 211.079103 
L 222.906411 137.829313 
L 216.319279 137.829313 
z
" clip-path="url(#p9e074aa137)" style="fill: #ff7f0e"/>
   </g>
   <g id="patch_25">
    <path d="M 298.658426 211.079103 
L 305.245558 211.079103 
L 305.245558 228.595357 
L 298.658426 228.595357 
z
" clip-path="url(#p9e074aa137)" style="fill: #ff7f0e"/>
   </g>
   <g id="patch_26">
    <path d="M 380.997572 211.079103 
L 387.584704 211.079103 
L 387.584704 195.155236 
L 380.997572 195.155236 
z
" clip-path="url(#p9e074aa137)" style="fill: #ff7f0e"/>
   </g>
   <g id="patch_27">
    <path d="M 463.336719 211.079103 
L 469.923851 211.079103 
L 469.923851 209.486716 
L 463.336719 209.486716 
z
" clip-path="url(#p9e074aa137)" style="fill: #ff7f0e"/>
   </g>
   <g id="patch_28">
    <path d="M 545.675866 211.079103 
L 552.262997 211.079103 
L 552.262997 301.845147 
L 545.675866 301.845147 
z
" clip-path="url(#p9e074aa137)" style="fill: #ff7f0e"/>
   </g>
   <g id="patch_29">
    <path d="M 628.015012 211.079103 
L 634.602144 211.079103 
L 634.602144 271.589799 
L 628.015012 271.589799 
z
" clip-path="url(#p9e074aa137)" style="fill: #ff7f0e"/>
   </g>
   <g id="patch_30">
    <path d="M 710.354159 211.079103 
L 716.94129 211.079103 
L 716.94129 209.486716 
L 710.354159 209.486716 
z
" clip-path="url(#p9e074aa137)" style="fill: #ff7f0e"/>
   </g>
   <g id="patch_31">
    <path d="M 792.693305 211.079103 
L 799.280437 211.079103 
L 799.280437 193.562849 
L 792.693305 193.562849 
z
" clip-path="url(#p9e074aa137)" style="fill: #ff7f0e"/>
   </g>
   <g id="patch_32">
    <path d="M 875.032452 211.079103 
L 881.619584 211.079103 
L 881.619584 148.97602 
L 875.032452 148.97602 
z
" clip-path="url(#p9e074aa137)" style="fill: #ff7f0e"/>
   </g>
   <g id="patch_33">
    <path d="M 140.567264 211.079103 
L 147.154396 211.079103 
L 147.154396 179.231368 
L 140.567264 179.231368 
z
" clip-path="url(#p9e074aa137)" style="fill: #ffbb78"/>
   </g>
   <g id="patch_34">
    <path d="M 222.906411 211.079103 
L 229.493543 211.079103 
L 229.493543 110.758739 
L 222.906411 110.758739 
z
" clip-path="url(#p9e074aa137)" style="fill: #ffbb78"/>
   </g>
   <g id="patch_35">
    <path d="M 305.245558 211.079103 
L 311.832689 211.079103 
L 311.832689 128.274993 
L 305.245558 128.274993 
z
" clip-path="url(#p9e074aa137)" style="fill: #ffbb78"/>
   </g>
   <g id="patch_36">
    <path d="M 387.584704 211.079103 
L 394.171836 211.079103 
L 394.171836 238.149677 
L 387.584704 238.149677 
z
" clip-path="url(#p9e074aa137)" style="fill: #ffbb78"/>
   </g>
   <g id="patch_37">
    <path d="M 469.923851 211.079103 
L 476.510982 211.079103 
L 476.510982 198.340009 
L 469.923851 198.340009 
z
" clip-path="url(#p9e074aa137)" style="fill: #ffbb78"/>
   </g>
   <g id="patch_38">
    <path d="M 552.262997 211.079103 
L 558.850129 211.079103 
L 558.850129 153.753181 
L 552.262997 153.753181 
z
" clip-path="url(#p9e074aa137)" style="fill: #ffbb78"/>
   </g>
   <g id="patch_39">
    <path d="M 634.602144 211.079103 
L 641.189276 211.079103 
L 641.189276 184.008529 
L 634.602144 184.008529 
z
" clip-path="url(#p9e074aa137)" style="fill: #ffbb78"/>
   </g>
   <g id="patch_40">
    <path d="M 716.94129 211.079103 
L 723.528422 211.079103 
L 723.528422 198.340009 
L 716.94129 198.340009 
z
" clip-path="url(#p9e074aa137)" style="fill: #ffbb78"/>
   </g>
   <g id="patch_41">
    <path d="M 799.280437 211.079103 
L 805.867569 211.079103 
L 805.867569 238.149677 
L 799.280437 238.149677 
z
" clip-path="url(#p9e074aa137)" style="fill: #ffbb78"/>
   </g>
   <g id="patch_42">
    <path d="M 881.619584 211.079103 
L 888.206715 211.079103 
L 888.206715 254.073545 
L 881.619584 254.073545 
z
" clip-path="url(#p9e074aa137)" style="fill: #ffbb78"/>
   </g>
   <g id="patch_43">
    <path d="M 147.154396 211.079103 
L 153.741528 211.079103 
L 153.741528 184.008529 
L 147.154396 184.008529 
z
" clip-path="url(#p9e074aa137)" style="fill: #2ca02c"/>
   </g>
   <g id="patch_44">
    <path d="M 229.493543 211.079103 
L 236.080675 211.079103 
L 236.080675 268.405025 
L 229.493543 268.405025 
z
" clip-path="url(#p9e074aa137)" style="fill: #2ca02c"/>
   </g>
   <g id="patch_45">
    <path d="M 311.832689 211.079103 
L 318.419821 211.079103 
L 318.419821 141.014087 
L 311.832689 141.014087 
z
" clip-path="url(#p9e074aa137)" style="fill: #2ca02c"/>
   </g>
   <g id="patch_46">
    <path d="M 394.171836 211.079103 
L 400.758968 211.079103 
L 400.758968 217.44865 
L 394.171836 217.44865 
z
" clip-path="url(#p9e074aa137)" style="fill: #2ca02c"/>
   </g>
   <g id="patch_47">
    <path d="M 476.510982 211.079103 
L 483.098114 211.079103 
L 483.098114 209.486716 
L 476.510982 209.486716 
z
" clip-path="url(#p9e074aa137)" style="fill: #2ca02c"/>
   </g>
   <g id="patch_48">
    <path d="M 558.850129 211.079103 
L 565.437261 211.079103 
L 565.437261 252.481158 
L 558.850129 252.481158 
z
" clip-path="url(#p9e074aa137)" style="fill: #2ca02c"/>
   </g>
   <g id="patch_49">
    <path d="M 641.189276 211.079103 
L 647.776407 211.079103 
L 647.776407 199.932396 
L 641.189276 199.932396 
z
" clip-path="url(#p9e074aa137)" style="fill: #2ca02c"/>
   </g>
   <g id="patch_50">
    <path d="M 723.528422 211.079103 
L 730.115554 211.079103 
L 730.115554 209.486716 
L 723.528422 209.486716 
z
" clip-path="url(#p9e074aa137)" style="fill: #2ca02c"/>
   </g>
   <g id="patch_51">
    <path d="M 805.867569 211.079103 
L 812.4547 211.079103 
L 812.4547 217.44865 
L 805.867569 217.44865 
z
" clip-path="url(#p9e074aa137)" style="fill: #2ca02c"/>
   </g>
   <g id="patch_52">
    <path d="M 888.206715 211.079103 
L 894.793847 211.079103 
L 894.793847 227.00297 
L 888.206715 227.00297 
z
" clip-path="url(#p9e074aa137)" style="fill: #2ca02c"/>
   </g>
   <g id="patch_53">
    <path d="M 153.741528 211.079103 
L 160.32866 211.079103 
L 160.32866 164.899888 
L 153.741528 164.899888 
z
" clip-path="url(#p9e074aa137)" style="fill: #98df8a"/>
   </g>
   <g id="patch_54">
    <path d="M 236.080675 211.079103 
L 242.667806 211.079103 
L 242.667806 236.557291 
L 236.080675 236.557291 
z
" clip-path="url(#p9e074aa137)" style="fill: #98df8a"/>
   </g>
   <g id="patch_55">
    <path d="M 318.419821 211.079103 
L 325.006953 211.079103 
L 325.006953 223.818197 
L 318.419821 223.818197 
z
" clip-path="url(#p9e074aa137)" style="fill: #98df8a"/>
   </g>
   <g id="patch_56">
    <path d="M 400.758968 211.079103 
L 407.346099 211.079103 
L 407.346099 199.932396 
L 400.758968 199.932396 
z
" clip-path="url(#p9e074aa137)" style="fill: #98df8a"/>
   </g>
   <g id="patch_57">
    <path d="M 483.098114 211.079103 
L 489.685246 211.079103 
L 489.685246 223.818197 
L 483.098114 223.818197 
z
" clip-path="url(#p9e074aa137)" style="fill: #98df8a"/>
   </g>
   <g id="patch_58">
    <path d="M 565.437261 211.079103 
L 572.024393 211.079103 
L 572.024393 166.492275 
L 565.437261 166.492275 
z
" clip-path="url(#p9e074aa137)" style="fill: #98df8a"/>
   </g>
   <g id="patch_59">
    <path d="M 647.776407 211.079103 
L 654.363539 211.079103 
L 654.363539 206.301943 
L 647.776407 206.301943 
z
" clip-path="url(#p9e074aa137)" style="fill: #98df8a"/>
   </g>
   <g id="patch_60">
    <path d="M 730.115554 211.079103 
L 736.702686 211.079103 
L 736.702686 223.818197 
L 730.115554 223.818197 
z
" clip-path="url(#p9e074aa137)" style="fill: #98df8a"/>
   </g>
   <g id="patch_61">
    <path d="M 812.4547 211.079103 
L 819.041832 211.079103 
L 819.041832 199.932396 
L 812.4547 199.932396 
z
" clip-path="url(#p9e074aa137)" style="fill: #98df8a"/>
   </g>
   <g id="patch_62">
    <path d="M 894.793847 211.079103 
L 901.380979 211.079103 
L 901.380979 220.633423 
L 894.793847 220.633423 
z
" clip-path="url(#p9e074aa137)" style="fill: #98df8a"/>
   </g>
   <g id="patch_63">
    <path d="M 160.32866 211.079103 
L 166.915791 211.079103 
L 166.915791 211.079103 
L 160.32866 211.079103 
z
" clip-path="url(#p9e074aa137)" style="fill: #d62728"/>
   </g>
   <g id="patch_64">
    <path d="M 242.667806 211.079103 
L 249.254938 211.079103 
L 249.254938 211.079103 
L 242.667806 211.079103 
z
" clip-path="url(#p9e074aa137)" style="fill: #d62728"/>
   </g>
   <g id="patch_65">
    <path d="M 325.006953 211.079103 
L 331.594085 211.079103 
L 331.594085 211.079103 
L 325.006953 211.079103 
z
" clip-path="url(#p9e074aa137)" style="fill: #d62728"/>
   </g>
   <g id="patch_66">
    <path d="M 407.346099 211.079103 
L 413.933231 211.079103 
L 413.933231 211.079103 
L 407.346099 211.079103 
z
" clip-path="url(#p9e074aa137)" style="fill: #d62728"/>
   </g>
   <g id="patch_67">
    <path d="M 489.685246 211.079103 
L 496.272378 211.079103 
L 496.272378 211.079103 
L 489.685246 211.079103 
z
" clip-path="url(#p9e074aa137)" style="fill: #d62728"/>
   </g>
   <g id="patch_68">
    <path d="M 572.024393 211.079103 
L 578.611524 211.079103 
L 578.611524 211.079103 
L 572.024393 211.079103 
z
" clip-path="url(#p9e074aa137)" style="fill: #d62728"/>
   </g>
   <g id="patch_69">
    <path d="M 654.363539 211.079103 
L 660.950671 211.079103 
L 660.950671 204.709556 
L 654.363539 204.709556 
z
" clip-path="url(#p9e074aa137)" style="fill: #d62728"/>
   </g>
   <g id="patch_70">
    <path d="M 736.702686 211.079103 
L 743.289817 211.079103 
L 743.289817 211.079103 
L 736.702686 211.079103 
z
" clip-path="url(#p9e074aa137)" style="fill: #d62728"/>
   </g>
   <g id="patch_71">
    <path d="M 819.041832 211.079103 
L 825.628964 211.079103 
L 825.628964 211.079103 
L 819.041832 211.079103 
z
" clip-path="url(#p9e074aa137)" style="fill: #d62728"/>
   </g>
   <g id="patch_72">
    <path d="M 901.380979 211.079103 
L 907.968111 211.079103 
L 907.968111 204.709556 
L 901.380979 204.709556 
z
" clip-path="url(#p9e074aa137)" style="fill: #d62728"/>
   </g>
   <g id="patch_73">
    <path d="M 166.915791 211.079103 
L 173.502923 211.079103 
L 173.502923 211.079103 
L 166.915791 211.079103 
z
" clip-path="url(#p9e074aa137)" style="fill: #ff9896"/>
   </g>
   <g id="patch_74">
    <path d="M 249.254938 211.079103 
L 255.84207 211.079103 
L 255.84207 211.079103 
L 249.254938 211.079103 
z
" clip-path="url(#p9e074aa137)" style="fill: #ff9896"/>
   </g>
   <g id="patch_75">
    <path d="M 331.594085 211.079103 
L 338.181216 211.079103 
L 338.181216 211.079103 
L 331.594085 211.079103 
z
" clip-path="url(#p9e074aa137)" style="fill: #ff9896"/>
   </g>
   <g id="patch_76">
    <path d="M 413.933231 211.079103 
L 420.520363 211.079103 
L 420.520363 211.079103 
L 413.933231 211.079103 
z
" clip-path="url(#p9e074aa137)" style="fill: #ff9896"/>
   </g>
   <g id="patch_77">
    <path d="M 496.272378 211.079103 
L 502.859509 211.079103 
L 502.859509 211.079103 
L 496.272378 211.079103 
z
" clip-path="url(#p9e074aa137)" style="fill: #ff9896"/>
   </g>
   <g id="patch_78">
    <path d="M 578.611524 211.079103 
L 585.198656 211.079103 
L 585.198656 211.079103 
L 578.611524 211.079103 
z
" clip-path="url(#p9e074aa137)" style="fill: #ff9896"/>
   </g>
   <g id="patch_79">
    <path d="M 660.950671 211.079103 
L 667.537803 211.079103 
L 667.537803 211.079103 
L 660.950671 211.079103 
z
" clip-path="url(#p9e074aa137)" style="fill: #ff9896"/>
   </g>
   <g id="patch_80">
    <path d="M 743.289817 211.079103 
L 749.876949 211.079103 
L 749.876949 211.079103 
L 743.289817 211.079103 
z
" clip-path="url(#p9e074aa137)" style="fill: #ff9896"/>
   </g>
   <g id="patch_81">
    <path d="M 825.628964 211.079103 
L 832.216096 211.079103 
L 832.216096 211.079103 
L 825.628964 211.079103 
z
" clip-path="url(#p9e074aa137)" style="fill: #ff9896"/>
   </g>
   <g id="patch_82">
    <path d="M 907.968111 211.079103 
L 914.555242 211.079103 
L 914.555242 211.079103 
L 907.968111 211.079103 
z
" clip-path="url(#p9e074aa137)" style="fill: #ff9896"/>
   </g>
   <g id="patch_83">
    <path d="M 173.502923 211.079103 
L 180.090055 211.079103 
L 180.090055 211.079103 
L 173.502923 211.079103 
z
" clip-path="url(#p9e074aa137)" style="fill: #9467bd"/>
   </g>
   <g id="patch_84">
    <path d="M 255.84207 211.079103 
L 262.429201 211.079103 
L 262.429201 211.079103 
L 255.84207 211.079103 
z
" clip-path="url(#p9e074aa137)" style="fill: #9467bd"/>
   </g>
   <g id="patch_85">
    <path d="M 338.181216 211.079103 
L 344.768348 211.079103 
L 344.768348 211.079103 
L 338.181216 211.079103 
z
" clip-path="url(#p9e074aa137)" style="fill: #9467bd"/>
   </g>
   <g id="patch_86">
    <path d="M 420.520363 211.079103 
L 427.107495 211.079103 
L 427.107495 211.079103 
L 420.520363 211.079103 
z
" clip-path="url(#p9e074aa137)" style="fill: #9467bd"/>
   </g>
   <g id="patch_87">
    <path d="M 502.859509 211.079103 
L 509.446641 211.079103 
L 509.446641 211.079103 
L 502.859509 211.079103 
z
" clip-path="url(#p9e074aa137)" style="fill: #9467bd"/>
   </g>
   <g id="patch_88">
    <path d="M 585.198656 211.079103 
L 591.785788 211.079103 
L 591.785788 211.079103 
L 585.198656 211.079103 
z
" clip-path="url(#p9e074aa137)" style="fill: #9467bd"/>
   </g>
   <g id="patch_89">
    <path d="M 667.537803 211.079103 
L 674.124934 211.079103 
L 674.124934 211.079103 
L 667.537803 211.079103 
z
" clip-path="url(#p9e074aa137)" style="fill: #9467bd"/>
   </g>
   <g id="patch_90">
    <path d="M 749.876949 211.079103 
L 756.464081 211.079103 
L 756.464081 211.079103 
L 749.876949 211.079103 
z
" clip-path="url(#p9e074aa137)" style="fill: #9467bd"/>
   </g>
   <g id="patch_91">
    <path d="M 832.216096 211.079103 
L 838.803227 211.079103 
L 838.803227 211.079103 
L 832.216096 211.079103 
z
" clip-path="url(#p9e074aa137)" style="fill: #9467bd"/>
   </g>
   <g id="patch_92">
    <path d="M 914.555242 211.079103 
L 921.142374 211.079103 
L 921.142374 211.079103 
L 914.555242 211.079103 
z
" clip-path="url(#p9e074aa137)" style="fill: #9467bd"/>
   </g>
   <g id="patch_93">
    <path d="M 180.090055 211.079103 
L 186.677187 211.079103 
L 186.677187 211.079103 
L 180.090055 211.079103 
z
" clip-path="url(#p9e074aa137)" style="fill: #c5b0d5"/>
   </g>
   <g id="patch_94">
    <path d="M 262.429201 211.079103 
L 269.016333 211.079103 
L 269.016333 211.079103 
L 262.429201 211.079103 
z
" clip-path="url(#p9e074aa137)" style="fill: #c5b0d5"/>
   </g>
   <g id="patch_95">
    <path d="M 344.768348 211.079103 
L 351.35548 211.079103 
L 351.35548 211.079103 
L 344.768348 211.079103 
z
" clip-path="url(#p9e074aa137)" style="fill: #c5b0d5"/>
   </g>
   <g id="patch_96">
    <path d="M 427.107495 211.079103 
L 433.694626 211.079103 
L 433.694626 211.079103 
L 427.107495 211.079103 
z
" clip-path="url(#p9e074aa137)" style="fill: #c5b0d5"/>
   </g>
   <g id="patch_97">
    <path d="M 509.446641 211.079103 
L 516.033773 211.079103 
L 516.033773 211.079103 
L 509.446641 211.079103 
z
" clip-path="url(#p9e074aa137)" style="fill: #c5b0d5"/>
   </g>
   <g id="patch_98">
    <path d="M 591.785788 211.079103 
L 598.372919 211.079103 
L 598.372919 211.079103 
L 591.785788 211.079103 
z
" clip-path="url(#p9e074aa137)" style="fill: #c5b0d5"/>
   </g>
   <g id="patch_99">
    <path d="M 674.124934 211.079103 
L 680.712066 211.079103 
L 680.712066 211.079103 
L 674.124934 211.079103 
z
" clip-path="url(#p9e074aa137)" style="fill: #c5b0d5"/>
   </g>
   <g id="patch_100">
    <path d="M 756.464081 211.079103 
L 763.051213 211.079103 
L 763.051213 211.079103 
L 756.464081 211.079103 
z
" clip-path="url(#p9e074aa137)" style="fill: #c5b0d5"/>
   </g>
   <g id="patch_101">
    <path d="M 838.803227 211.079103 
L 845.390359 211.079103 
L 845.390359 211.079103 
L 838.803227 211.079103 
z
" clip-path="url(#p9e074aa137)" style="fill: #c5b0d5"/>
   </g>
   <g id="patch_102">
    <path d="M 921.142374 211.079103 
L 927.729506 211.079103 
L 927.729506 211.079103 
L 921.142374 211.079103 
z
" clip-path="url(#p9e074aa137)" style="fill: #c5b0d5"/>
   </g>
   <g id="line2d_39">
    <path d="M 80.459688 211.079103 
L 968.075688 211.079103 
" clip-path="url(#p9e074aa137)" style="fill: none; stroke: #000000; stroke-linecap: square"/>
   </g>
   <g id="patch_103">
    <path d="M 80.459688 386.241644 
L 80.459688 35.916562 
" style="fill: none; stroke: #ffffff; stroke-linejoin: miter; stroke-linecap: square"/>
   </g>
   <g id="patch_104">
    <path d="M 968.075688 386.241644 
L 968.075688 35.916562 
" style="fill: none; stroke: #ffffff; stroke-linejoin: miter; stroke-linecap: square"/>
   </g>
   <g id="patch_105">
    <path d="M 80.459688 386.241644 
L 968.075688 386.241644 
" style="fill: none; stroke: #ffffff; stroke-linejoin: miter; stroke-linecap: square"/>
   </g>
   <g id="patch_106">
    <path d="M 80.459688 35.916562 
L 968.075688 35.916562 
" style="fill: none; stroke: #ffffff; stroke-linejoin: miter; stroke-linecap: square"/>
   </g>
   <g id="text_22">
    <!-- Cargas de los Componentes Principales -->
    <g transform="translate(307.074406 23.916562) scale(0.22 -0.22)">
     <defs>
      <path id="DejaVuSans-20" transform="scale(0.015625)"/>
      <path id="DejaVuSans-64" d="M 2906 2969 
L 2906 4863 
L 3481 4863 
L 3481 0 
L 2906 0 
L 2906 525 
Q 2725 213 2448 61 
Q 2172 -91 1784 -91 
Q 1150 -91 751 415 
Q 353 922 353 1747 
Q 353 2572 751 3078 
Q 1150 3584 1784 3584 
Q 2172 3584 2448 3432 
Q 2725 3281 2906 2969 
z
M 947 1747 
Q 947 1113 1208 752 
Q 1469 391 1925 391 
Q 2381 391 2643 752 
Q 2906 1113 2906 1747 
Q 2906 2381 2643 2742 
Q 2381 3103 1925 3103 
Q 1469 3103 1208 2742 
Q 947 2381 947 1747 
z
" transform="scale(0.015625)"/>
      <path id="DejaVuSans-6f" d="M 1959 3097 
Q 1497 3097 1228 2736 
Q 959 2375 959 1747 
Q 959 1119 1226 758 
Q 1494 397 1959 397 
Q 2419 397 2687 759 
Q 2956 1122 2956 1747 
Q 2956 2369 2687 2733 
Q 2419 3097 1959 3097 
z
M 1959 3584 
Q 2709 3584 3137 3096 
Q 3566 2609 3566 1747 
Q 3566 888 3137 398 
Q 2709 -91 1959 -91 
Q 1206 -91 779 398 
Q 353 888 353 1747 
Q 353 2609 779 3096 
Q 1206 3584 1959 3584 
z
" transform="scale(0.015625)"/>
      <path id="DejaVuSans-6e" d="M 3513 2113 
L 3513 0 
L 2938 0 
L 2938 2094 
Q 2938 2591 2744 2837 
Q 2550 3084 2163 3084 
Q 1697 3084 1428 2787 
Q 1159 2491 1159 1978 
L 1159 0 
L 581 0 
L 581 3500 
L 1159 3500 
L 1159 2956 
Q 1366 3272 1645 3428 
Q 1925 3584 2291 3584 
Q 2894 3584 3203 3211 
Q 3513 2838 3513 2113 
z
" transform="scale(0.015625)"/>
      <path id="DejaVuSans-50" d="M 1259 4147 
L 1259 2394 
L 2053 2394 
Q 2494 2394 2734 2622 
Q 2975 2850 2975 3272 
Q 2975 3691 2734 3919 
Q 2494 4147 2053 4147 
L 1259 4147 
z
M 628 4666 
L 2053 4666 
Q 2838 4666 3239 4311 
Q 3641 3956 3641 3272 
Q 3641 2581 3239 2228 
Q 2838 1875 2053 1875 
L 1259 1875 
L 1259 0 
L 628 0 
L 628 4666 
z
" transform="scale(0.015625)"/>
      <path id="DejaVuSans-63" d="M 3122 3366 
L 3122 2828 
Q 2878 2963 2633 3030 
Q 2388 3097 2138 3097 
Q 1578 3097 1268 2742 
Q 959 2388 959 1747 
Q 959 1106 1268 751 
Q 1578 397 2138 397 
Q 2388 397 2633 464 
Q 2878 531 3122 666 
L 3122 134 
Q 2881 22 2623 -34 
Q 2366 -91 2075 -91 
Q 1284 -91 818 406 
Q 353 903 353 1747 
Q 353 2603 823 3093 
Q 1294 3584 2113 3584 
Q 2378 3584 2631 3529 
Q 2884 3475 3122 3366 
z
" transform="scale(0.015625)"/>
     </defs>
     <use xlink:href="#DejaVuSans-43"/>
     <use xlink:href="#DejaVuSans-61" x="69.824219"/>
     <use xlink:href="#DejaVuSans-72" x="131.103516"/>
     <use xlink:href="#DejaVuSans-67" x="170.466797"/>
     <use xlink:href="#DejaVuSans-61" x="233.943359"/>
     <use xlink:href="#DejaVuSans-73" x="295.222656"/>
     <use xlink:href="#DejaVuSans-20" x="347.322266"/>
     <use xlink:href="#DejaVuSans-64" x="379.109375"/>
     <use xlink:href="#DejaVuSans-65" x="442.585938"/>
     <use xlink:href="#DejaVuSans-20" x="504.109375"/>
     <use xlink:href="#DejaVuSans-6c" x="535.896484"/>
     <use xlink:href="#DejaVuSans-6f" x="563.679688"/>
     <use xlink:href="#DejaVuSans-73" x="624.861328"/>
     <use xlink:href="#DejaVuSans-20" x="676.960938"/>
     <use xlink:href="#DejaVuSans-43" x="708.748047"/>
     <use xlink:href="#DejaVuSans-6f" x="778.572266"/>
     <use xlink:href="#DejaVuSans-6d" x="839.753906"/>
     <use xlink:href="#DejaVuSans-70" x="937.166016"/>
     <use xlink:href="#DejaVuSans-6f" x="1000.642578"/>
     <use xlink:href="#DejaVuSans-6e" x="1061.824219"/>
     <use xlink:href="#DejaVuSans-65" x="1125.203125"/>
     <use xlink:href="#DejaVuSans-6e" x="1186.726562"/>
     <use xlink:href="#DejaVuSans-74" x="1250.105469"/>
     <use xlink:href="#DejaVuSans-65" x="1289.314453"/>
     <use xlink:href="#DejaVuSans-73" x="1350.837891"/>
     <use xlink:href="#DejaVuSans-20" x="1402.9375"/>
     <use xlink:href="#DejaVuSans-50" x="1434.724609"/>
     <use xlink:href="#DejaVuSans-72" x="1493.277344"/>
     <use xlink:href="#DejaVuSans-69" x="1534.390625"/>
     <use xlink:href="#DejaVuSans-6e" x="1562.173828"/>
     <use xlink:href="#DejaVuSans-63" x="1625.552734"/>
     <use xlink:href="#DejaVuSans-69" x="1680.533203"/>
     <use xlink:href="#DejaVuSans-70" x="1708.316406"/>
     <use xlink:href="#DejaVuSans-61" x="1771.792969"/>
     <use xlink:href="#DejaVuSans-6c" x="1833.072266"/>
     <use xlink:href="#DejaVuSans-65" x="1860.855469"/>
     <use xlink:href="#DejaVuSans-73" x="1922.378906"/>
    </g>
   </g>
   <g id="legend_1">
    <g id="text_23">
     <!-- Componentes -->
     <g transform="translate(982.551848 52.154375) scale(0.14 -0.14)">
      <use xlink:href="#DejaVuSans-43"/>
      <use xlink:href="#DejaVuSans-6f" x="69.824219"/>
      <use xlink:href="#DejaVuSans-6d" x="131.005859"/>
      <use xlink:href="#DejaVuSans-70" x="228.417969"/>
      <use xlink:href="#DejaVuSans-6f" x="291.894531"/>
      <use xlink:href="#DejaVuSans-6e" x="353.076172"/>
      <use xlink:href="#DejaVuSans-65" x="416.455078"/>
      <use xlink:href="#DejaVuSans-6e" x="477.978516"/>
      <use xlink:href="#DejaVuSans-74" x="541.357422"/>
      <use xlink:href="#DejaVuSans-65" x="580.566406"/>
      <use xlink:href="#DejaVuSans-73" x="642.089844"/>
     </g>
    </g>
    <g id="patch_107">
     <path d="M 993.529816 72.70375 
L 1021.529816 72.70375 
L 1021.529816 62.90375 
L 993.529816 62.90375 
z
" style="fill: #1f77b4"/>
    </g>
    <g id="text_24">
     <!-- PC1 -->
     <g transform="translate(1032.729816 72.70375) scale(0.14 -0.14)">
      <use xlink:href="#DejaVuSans-50"/>
      <use xlink:href="#DejaVuSans-43" x="60.302734"/>
      <use xlink:href="#DejaVuSans-31" x="130.126953"/>
     </g>
    </g>
    <g id="patch_108">
     <path d="M 993.529816 93.253125 
L 1021.529816 93.253125 
L 1021.529816 83.453125 
L 993.529816 83.453125 
z
" style="fill: #aec7e8"/>
    </g>
    <g id="text_25">
     <!-- PC2 -->
     <g transform="translate(1032.729816 93.253125) scale(0.14 -0.14)">
      <use xlink:href="#DejaVuSans-50"/>
      <use xlink:href="#DejaVuSans-43" x="60.302734"/>
      <use xlink:href="#DejaVuSans-32" x="130.126953"/>
     </g>
    </g>
    <g id="patch_109">
     <path d="M 993.529816 113.8025 
L 1021.529816 113.8025 
L 1021.529816 104.0025 
L 993.529816 104.0025 
z
" style="fill: #ff7f0e"/>
    </g>
    <g id="text_26">
     <!-- PC3 -->
     <g transform="translate(1032.729816 113.8025) scale(0.14 -0.14)">
      <defs>
       <path id="DejaVuSans-33" d="M 2597 2516 
Q 3050 2419 3304 2112 
Q 3559 1806 3559 1356 
Q 3559 666 3084 287 
Q 2609 -91 1734 -91 
Q 1441 -91 1130 -33 
Q 819 25 488 141 
L 488 750 
Q 750 597 1062 519 
Q 1375 441 1716 441 
Q 2309 441 2620 675 
Q 2931 909 2931 1356 
Q 2931 1769 2642 2001 
Q 2353 2234 1838 2234 
L 1294 2234 
L 1294 2753 
L 1863 2753 
Q 2328 2753 2575 2939 
Q 2822 3125 2822 3475 
Q 2822 3834 2567 4026 
Q 2313 4219 1838 4219 
Q 1578 4219 1281 4162 
Q 984 4106 628 3988 
L 628 4550 
Q 988 4650 1302 4700 
Q 1616 4750 1894 4750 
Q 2613 4750 3031 4423 
Q 3450 4097 3450 3541 
Q 3450 3153 3228 2886 
Q 3006 2619 2597 2516 
z
" transform="scale(0.015625)"/>
      </defs>
      <use xlink:href="#DejaVuSans-50"/>
      <use xlink:href="#DejaVuSans-43" x="60.302734"/>
      <use xlink:href="#DejaVuSans-33" x="130.126953"/>
     </g>
    </g>
    <g id="patch_110">
     <path d="M 993.529816 134.351875 
L 1021.529816 134.351875 
L 1021.529816 124.551875 
L 993.529816 124.551875 
z
" style="fill: #ffbb78"/>
    </g>
    <g id="text_27">
     <!-- PC4 -->
     <g transform="translate(1032.729816 134.351875) scale(0.14 -0.14)">
      <use xlink:href="#DejaVuSans-50"/>
      <use xlink:href="#DejaVuSans-43" x="60.302734"/>
      <use xlink:href="#DejaVuSans-34" x="130.126953"/>
     </g>
    </g>
    <g id="patch_111">
     <path d="M 993.529816 154.90125 
L 1021.529816 154.90125 
L 1021.529816 145.10125 
L 993.529816 145.10125 
z
" style="fill: #2ca02c"/>
    </g>
    <g id="text_28">
     <!-- PC5 -->
     <g transform="translate(1032.729816 154.90125) scale(0.14 -0.14)">
      <use xlink:href="#DejaVuSans-50"/>
      <use xlink:href="#DejaVuSans-43" x="60.302734"/>
      <use xlink:href="#DejaVuSans-35" x="130.126953"/>
     </g>
    </g>
    <g id="patch_112">
     <path d="M 993.529816 175.450625 
L 1021.529816 175.450625 
L 1021.529816 165.650625 
L 993.529816 165.650625 
z
" style="fill: #98df8a"/>
    </g>
    <g id="text_29">
     <!-- PC6 -->
     <g transform="translate(1032.729816 175.450625) scale(0.14 -0.14)">
      <defs>
       <path id="DejaVuSans-36" d="M 2113 2584 
Q 1688 2584 1439 2293 
Q 1191 2003 1191 1497 
Q 1191 994 1439 701 
Q 1688 409 2113 409 
Q 2538 409 2786 701 
Q 3034 994 3034 1497 
Q 3034 2003 2786 2293 
Q 2538 2584 2113 2584 
z
M 3366 4563 
L 3366 3988 
Q 3128 4100 2886 4159 
Q 2644 4219 2406 4219 
Q 1781 4219 1451 3797 
Q 1122 3375 1075 2522 
Q 1259 2794 1537 2939 
Q 1816 3084 2150 3084 
Q 2853 3084 3261 2657 
Q 3669 2231 3669 1497 
Q 3669 778 3244 343 
Q 2819 -91 2113 -91 
Q 1303 -91 875 529 
Q 447 1150 447 2328 
Q 447 3434 972 4092 
Q 1497 4750 2381 4750 
Q 2619 4750 2861 4703 
Q 3103 4656 3366 4563 
z
" transform="scale(0.015625)"/>
      </defs>
      <use xlink:href="#DejaVuSans-50"/>
      <use xlink:href="#DejaVuSans-43" x="60.302734"/>
      <use xlink:href="#DejaVuSans-36" x="130.126953"/>
     </g>
    </g>
    <g id="patch_113">
     <path d="M 993.529816 196 
L 1021.529816 196 
L 1021.529816 186.2 
L 993.529816 186.2 
z
" style="fill: #d62728"/>
    </g>
    <g id="text_30">
     <!-- PC7 -->
     <g transform="translate(1032.729816 196) scale(0.14 -0.14)">
      <use xlink:href="#DejaVuSans-50"/>
      <use xlink:href="#DejaVuSans-43" x="60.302734"/>
      <use xlink:href="#DejaVuSans-37" x="130.126953"/>
     </g>
    </g>
    <g id="patch_114">
     <path d="M 993.529816 216.549375 
L 1021.529816 216.549375 
L 1021.529816 206.749375 
L 993.529816 206.749375 
z
" style="fill: #ff9896"/>
    </g>
    <g id="text_31">
     <!-- PC8 -->
     <g transform="translate(1032.729816 216.549375) scale(0.14 -0.14)">
      <defs>
       <path id="DejaVuSans-38" d="M 2034 2216 
Q 1584 2216 1326 1975 
Q 1069 1734 1069 1313 
Q 1069 891 1326 650 
Q 1584 409 2034 409 
Q 2484 409 2743 651 
Q 3003 894 3003 1313 
Q 3003 1734 2745 1975 
Q 2488 2216 2034 2216 
z
M 1403 2484 
Q 997 2584 770 2862 
Q 544 3141 544 3541 
Q 544 4100 942 4425 
Q 1341 4750 2034 4750 
Q 2731 4750 3128 4425 
Q 3525 4100 3525 3541 
Q 3525 3141 3298 2862 
Q 3072 2584 2669 2484 
Q 3125 2378 3379 2068 
Q 3634 1759 3634 1313 
Q 3634 634 3220 271 
Q 2806 -91 2034 -91 
Q 1263 -91 848 271 
Q 434 634 434 1313 
Q 434 1759 690 2068 
Q 947 2378 1403 2484 
z
M 1172 3481 
Q 1172 3119 1398 2916 
Q 1625 2713 2034 2713 
Q 2441 2713 2670 2916 
Q 2900 3119 2900 3481 
Q 2900 3844 2670 4047 
Q 2441 4250 2034 4250 
Q 1625 4250 1398 4047 
Q 1172 3844 1172 3481 
z
" transform="scale(0.015625)"/>
      </defs>
      <use xlink:href="#DejaVuSans-50"/>
      <use xlink:href="#DejaVuSans-43" x="60.302734"/>
      <use xlink:href="#DejaVuSans-38" x="130.126953"/>
     </g>
    </g>
    <g id="patch_115">
     <path d="M 993.529816 237.09875 
L 1021.529816 237.09875 
L 1021.529816 227.29875 
L 993.529816 227.29875 
z
" style="fill: #9467bd"/>
    </g>
    <g id="text_32">
     <!-- PC9 -->
     <g transform="translate(1032.729816 237.09875) scale(0.14 -0.14)">
      <defs>
       <path id="DejaVuSans-39" d="M 703 97 
L 703 672 
Q 941 559 1184 500 
Q 1428 441 1663 441 
Q 2288 441 2617 861 
Q 2947 1281 2994 2138 
Q 2813 1869 2534 1725 
Q 2256 1581 1919 1581 
Q 1219 1581 811 2004 
Q 403 2428 403 3163 
Q 403 3881 828 4315 
Q 1253 4750 1959 4750 
Q 2769 4750 3195 4129 
Q 3622 3509 3622 2328 
Q 3622 1225 3098 567 
Q 2575 -91 1691 -91 
Q 1453 -91 1209 -44 
Q 966 3 703 97 
z
M 1959 2075 
Q 2384 2075 2632 2365 
Q 2881 2656 2881 3163 
Q 2881 3666 2632 3958 
Q 2384 4250 1959 4250 
Q 1534 4250 1286 3958 
Q 1038 3666 1038 3163 
Q 1038 2656 1286 2365 
Q 1534 2075 1959 2075 
z
" transform="scale(0.015625)"/>
      </defs>
      <use xlink:href="#DejaVuSans-50"/>
      <use xlink:href="#DejaVuSans-43" x="60.302734"/>
      <use xlink:href="#DejaVuSans-39" x="130.126953"/>
     </g>
    </g>
    <g id="patch_116">
     <path d="M 993.529816 257.648125 
L 1021.529816 257.648125 
L 1021.529816 247.848125 
L 993.529816 247.848125 
z
" style="fill: #c5b0d5"/>
    </g>
    <g id="text_33">
     <!-- PC10 -->
     <g transform="translate(1032.729816 257.648125) scale(0.14 -0.14)">
      <use xlink:href="#DejaVuSans-50"/>
      <use xlink:href="#DejaVuSans-43" x="60.302734"/>
      <use xlink:href="#DejaVuSans-31" x="130.126953"/>
      <use xlink:href="#DejaVuSans-30" x="193.75"/>
     </g>
    </g>
   </g>
  </g>
 </g>
 <defs>
  <clipPath id="p9e074aa137">
   <rect x="80.459688" y="35.916562" width="887.616" height="350.325081"/>
  </clipPath>
 </defs>
</svg>
